ply
format ascii 1.0
element vertex 24
property float x
property float y
property float z
property float w
element face 6
property list int int vertex_indices
end_header
-0.5 -0.5 -0.5 1 
0.5 -0.5 -0.5 1 
0.5 -0.5 0.5 1 
-0.5 -0.5 0.5 1 
-0.5 0.5 -0.5 1 
0.5 0.5 -0.5 1 
0.5 0.5 0.5 1 
-0.5 0.5 0.5 1 
-0.5 0.5 0.5 1 
-0.5 0.5 0.5 1 
0.5 0.5 0.5 1 
0.5 0.5 0.5 1 
0.5 0.5 -0.5 1 
0.5 0.5 -0.5 1 
-0.5 0.5 -0.5 1 
-0.5 0.5 -0.5 1 
-0.5 -0.5 0.5 1 
-0.5 -0.5 0.5 1 
0.5 -0.5 0.5 1 
0.5 -0.5 0.5 1 
0.5 -0.5 -0.5 1 
0.5 -0.5 -0.5 1 
-0.5 -0.5 -0.5 1 
-0.5 -0.5 -0.5 1 
4 1 0 4 5 
4 2 20 12 6 
4 3 18 10 7 
4 22 16 8 14 
4 19 17 23 21 
4 13 15 9 11 
